<?xml version="1.0" standalone="no"?>
<svg viewBox="0 0 200 200" xmlns="http://www.w3.org/2000/svg">
  <path fill="#FF0066" d="M35.2,-56.6C40.8,-44.4,37.2,-27.7,42.1,-13.5C46.9,0.7,60.3,12.3,62.8,25.2C65.2,38.1,56.7,52.2,44.4,59.3C32.1,66.5,16.1,66.6,0.1,66.5C-15.8,66.3,-31.7,65.9,-42.8,58.3C-53.9,50.8,-60.3,36.3,-62.2,22.2C-64.1,8.1,-61.5,-5.5,-54,-14.1C-46.5,-22.7,-34.1,-26.3,-24.3,-37.1C-14.5,-47.9,-7.3,-65.8,3.8,-71C14.8,-76.2,29.6,-68.7,35.2,-56.6Z" transform="translate(100 100)" />
</svg>
